<svg width="9" height="10" viewBox="0 0 9 10" fill="none" xmlns="http://www.w3.org/2000/svg">
<path d="M0.329063 2.6686C0.224737 2.78282 0.141982 2.91843 0.0855208 3.06767C0.02906 3.21692 0 3.37688 0 3.53842C0 3.69996 0.02906 3.85992 0.0855208 4.00916C0.141982 4.1584 0.224737 4.29401 0.329063 4.40823L3.705 8.10095C3.91607 8.3318 4.2022 8.46146 4.50053 8.46146C4.79886 8.46146 5.08499 8.3318 5.29607 8.10095L8.67088 4.40947C8.77528 4.29508 8.85807 4.1593 8.91454 4.00987C8.97101 3.86045 9.00005 3.70031 9 3.5386C8.99995 3.37689 8.97081 3.21677 8.91424 3.06739C8.85767 2.91801 8.77479 2.78229 8.67031 2.66798C8.56584 2.55368 8.44183 2.46302 8.30536 2.40119C8.1689 2.33935 8.02264 2.30756 7.87495 2.30762C7.72726 2.30767 7.58102 2.33958 7.44459 2.40152C7.30816 2.46346 7.18421 2.55421 7.07981 2.6686L4.49941 5.49026L1.92125 2.6686C1.71018 2.43775 1.42405 2.30809 1.12572 2.30809C0.827391 2.30809 0.541261 2.43775 0.33019 2.6686H0.329063Z" fill="#1E266D"/>
</svg>
